<mxfile host="Electron" modified="2024-02-27T14:00:10.344Z" agent="Mozilla/5.0 (Windows NT 10.0; Win64; x64) AppleWebKit/537.36 (KHTML, like Gecko) draw.io/23.0.2 Chrome/120.0.6099.109 Electron/28.1.0 Safari/537.36" etag="3wRpL_JrQSkke3i-56dT" version="23.0.2" type="device">
  <diagram name="Страница — 1" id="JM2aQMvbkHjaF9X5fJ5L">
    <mxGraphModel dx="1687" dy="984" grid="0" gridSize="10" guides="1" tooltips="1" connect="1" arrows="1" fold="1" page="1" pageScale="1" pageWidth="4681" pageHeight="3300" math="0" shadow="0">
      <root>
        <mxCell id="0" />
        <mxCell id="1" parent="0" />
        <mxCell id="wt6zBIOPUe3T90bkuQL0-3" value="" style="edgeStyle=orthogonalEdgeStyle;rounded=0;orthogonalLoop=1;jettySize=auto;html=1;" edge="1" parent="1" source="wt6zBIOPUe3T90bkuQL0-1" target="wt6zBIOPUe3T90bkuQL0-2">
          <mxGeometry relative="1" as="geometry" />
        </mxCell>
        <mxCell id="wt6zBIOPUe3T90bkuQL0-1" value="int main() {" style="ellipse;whiteSpace=wrap;html=1;" vertex="1" parent="1">
          <mxGeometry x="453" y="80" width="120" height="80" as="geometry" />
        </mxCell>
        <mxCell id="wt6zBIOPUe3T90bkuQL0-5" value="" style="edgeStyle=orthogonalEdgeStyle;rounded=0;orthogonalLoop=1;jettySize=auto;html=1;" edge="1" parent="1" source="wt6zBIOPUe3T90bkuQL0-2" target="wt6zBIOPUe3T90bkuQL0-4">
          <mxGeometry relative="1" as="geometry" />
        </mxCell>
        <mxCell id="wt6zBIOPUe3T90bkuQL0-2" value="string s;" style="whiteSpace=wrap;html=1;" vertex="1" parent="1">
          <mxGeometry x="453" y="180" width="120" height="30" as="geometry" />
        </mxCell>
        <mxCell id="wt6zBIOPUe3T90bkuQL0-7" value="" style="edgeStyle=orthogonalEdgeStyle;rounded=0;orthogonalLoop=1;jettySize=auto;html=1;" edge="1" parent="1" source="wt6zBIOPUe3T90bkuQL0-4" target="wt6zBIOPUe3T90bkuQL0-6">
          <mxGeometry relative="1" as="geometry" />
        </mxCell>
        <mxCell id="wt6zBIOPUe3T90bkuQL0-4" value="cout&amp;lt;&amp;lt;&quot;Введите строку: &quot;;" style="shape=parallelogram;perimeter=parallelogramPerimeter;whiteSpace=wrap;html=1;fixedSize=1;" vertex="1" parent="1">
          <mxGeometry x="433" y="240" width="160" height="30" as="geometry" />
        </mxCell>
        <mxCell id="wt6zBIOPUe3T90bkuQL0-9" value="" style="edgeStyle=orthogonalEdgeStyle;rounded=0;orthogonalLoop=1;jettySize=auto;html=1;" edge="1" parent="1" source="wt6zBIOPUe3T90bkuQL0-6" target="wt6zBIOPUe3T90bkuQL0-8">
          <mxGeometry relative="1" as="geometry" />
        </mxCell>
        <mxCell id="wt6zBIOPUe3T90bkuQL0-6" value="getline(cin, s);" style="whiteSpace=wrap;html=1;" vertex="1" parent="1">
          <mxGeometry x="453" y="300" width="120" height="30" as="geometry" />
        </mxCell>
        <mxCell id="wt6zBIOPUe3T90bkuQL0-11" value="" style="edgeStyle=orthogonalEdgeStyle;rounded=0;orthogonalLoop=1;jettySize=auto;html=1;" edge="1" parent="1" source="wt6zBIOPUe3T90bkuQL0-8" target="wt6zBIOPUe3T90bkuQL0-10">
          <mxGeometry relative="1" as="geometry" />
        </mxCell>
        <mxCell id="wt6zBIOPUe3T90bkuQL0-8" value="const int n = s.length();" style="whiteSpace=wrap;html=1;" vertex="1" parent="1">
          <mxGeometry x="443" y="350" width="140" height="30" as="geometry" />
        </mxCell>
        <mxCell id="wt6zBIOPUe3T90bkuQL0-13" value="" style="edgeStyle=orthogonalEdgeStyle;rounded=0;orthogonalLoop=1;jettySize=auto;html=1;" edge="1" parent="1" source="wt6zBIOPUe3T90bkuQL0-10" target="wt6zBIOPUe3T90bkuQL0-12">
          <mxGeometry relative="1" as="geometry" />
        </mxCell>
        <mxCell id="wt6zBIOPUe3T90bkuQL0-10" value="string a[n];" style="whiteSpace=wrap;html=1;" vertex="1" parent="1">
          <mxGeometry x="453" y="410" width="120" height="30" as="geometry" />
        </mxCell>
        <mxCell id="wt6zBIOPUe3T90bkuQL0-15" value="" style="edgeStyle=orthogonalEdgeStyle;rounded=0;orthogonalLoop=1;jettySize=auto;html=1;" edge="1" parent="1" source="wt6zBIOPUe3T90bkuQL0-12" target="wt6zBIOPUe3T90bkuQL0-14">
          <mxGeometry relative="1" as="geometry" />
        </mxCell>
        <mxCell id="wt6zBIOPUe3T90bkuQL0-12" value="int k = 0;" style="whiteSpace=wrap;html=1;" vertex="1" parent="1">
          <mxGeometry x="453" y="460" width="120" height="30" as="geometry" />
        </mxCell>
        <mxCell id="wt6zBIOPUe3T90bkuQL0-17" value="" style="edgeStyle=orthogonalEdgeStyle;rounded=0;orthogonalLoop=1;jettySize=auto;html=1;" edge="1" parent="1" source="wt6zBIOPUe3T90bkuQL0-14" target="wt6zBIOPUe3T90bkuQL0-16">
          <mxGeometry relative="1" as="geometry" />
        </mxCell>
        <mxCell id="wt6zBIOPUe3T90bkuQL0-14" value="stringstream ss(s);" style="whiteSpace=wrap;html=1;" vertex="1" parent="1">
          <mxGeometry x="453" y="510" width="120" height="30" as="geometry" />
        </mxCell>
        <mxCell id="wt6zBIOPUe3T90bkuQL0-19" value="" style="edgeStyle=orthogonalEdgeStyle;rounded=0;orthogonalLoop=1;jettySize=auto;html=1;" edge="1" parent="1" source="wt6zBIOPUe3T90bkuQL0-16" target="wt6zBIOPUe3T90bkuQL0-18">
          <mxGeometry relative="1" as="geometry" />
        </mxCell>
        <mxCell id="wt6zBIOPUe3T90bkuQL0-30" value="" style="edgeStyle=orthogonalEdgeStyle;rounded=0;orthogonalLoop=1;jettySize=auto;html=1;" edge="1" parent="1" source="wt6zBIOPUe3T90bkuQL0-16" target="wt6zBIOPUe3T90bkuQL0-29">
          <mxGeometry relative="1" as="geometry" />
        </mxCell>
        <mxCell id="wt6zBIOPUe3T90bkuQL0-16" value="while(ss&amp;gt;&amp;gt;s) {" style="rhombus;whiteSpace=wrap;html=1;" vertex="1" parent="1">
          <mxGeometry x="443" y="580" width="140" height="50" as="geometry" />
        </mxCell>
        <mxCell id="wt6zBIOPUe3T90bkuQL0-21" value="" style="edgeStyle=orthogonalEdgeStyle;rounded=0;orthogonalLoop=1;jettySize=auto;html=1;" edge="1" parent="1" source="wt6zBIOPUe3T90bkuQL0-18" target="wt6zBIOPUe3T90bkuQL0-20">
          <mxGeometry relative="1" as="geometry" />
        </mxCell>
        <mxCell id="wt6zBIOPUe3T90bkuQL0-27" style="edgeStyle=orthogonalEdgeStyle;rounded=0;orthogonalLoop=1;jettySize=auto;html=1;exitX=1;exitY=0.5;exitDx=0;exitDy=0;" edge="1" parent="1" source="wt6zBIOPUe3T90bkuQL0-18">
          <mxGeometry relative="1" as="geometry">
            <mxPoint x="513" y="920" as="targetPoint" />
            <Array as="points">
              <mxPoint x="663" y="675" />
              <mxPoint x="663" y="880" />
              <mxPoint x="514" y="880" />
            </Array>
          </mxGeometry>
        </mxCell>
        <mxCell id="wt6zBIOPUe3T90bkuQL0-18" value="if (s[0] &amp;gt;= &#39;0&#39; &amp;amp;&amp;amp; s[0] &amp;lt;= &#39;9&#39;)" style="rhombus;whiteSpace=wrap;html=1;" vertex="1" parent="1">
          <mxGeometry x="403" y="650" width="220" height="50" as="geometry" />
        </mxCell>
        <mxCell id="wt6zBIOPUe3T90bkuQL0-23" value="" style="edgeStyle=orthogonalEdgeStyle;rounded=0;orthogonalLoop=1;jettySize=auto;html=1;" edge="1" parent="1" source="wt6zBIOPUe3T90bkuQL0-20" target="wt6zBIOPUe3T90bkuQL0-22">
          <mxGeometry relative="1" as="geometry" />
        </mxCell>
        <mxCell id="wt6zBIOPUe3T90bkuQL0-20" value="a[k] = s;" style="whiteSpace=wrap;html=1;" vertex="1" parent="1">
          <mxGeometry x="303" y="740" width="90" height="30" as="geometry" />
        </mxCell>
        <mxCell id="wt6zBIOPUe3T90bkuQL0-26" style="edgeStyle=orthogonalEdgeStyle;rounded=0;orthogonalLoop=1;jettySize=auto;html=1;exitX=0.5;exitY=1;exitDx=0;exitDy=0;" edge="1" parent="1" source="wt6zBIOPUe3T90bkuQL0-22">
          <mxGeometry relative="1" as="geometry">
            <mxPoint x="513" y="570" as="targetPoint" />
            <Array as="points">
              <mxPoint x="348" y="880" />
              <mxPoint x="513" y="880" />
              <mxPoint x="513" y="920" />
              <mxPoint x="283" y="920" />
              <mxPoint x="283" y="570" />
            </Array>
          </mxGeometry>
        </mxCell>
        <mxCell id="wt6zBIOPUe3T90bkuQL0-22" value="k++;" style="whiteSpace=wrap;html=1;" vertex="1" parent="1">
          <mxGeometry x="303" y="790" width="90" height="30" as="geometry" />
        </mxCell>
        <mxCell id="wt6zBIOPUe3T90bkuQL0-28" value="}" style="text;html=1;align=center;verticalAlign=middle;resizable=0;points=[];autosize=1;strokeColor=none;fillColor=none;" vertex="1" parent="1">
          <mxGeometry x="528" y="888" width="30" height="30" as="geometry" />
        </mxCell>
        <mxCell id="wt6zBIOPUe3T90bkuQL0-32" value="" style="edgeStyle=orthogonalEdgeStyle;rounded=0;orthogonalLoop=1;jettySize=auto;html=1;" edge="1" parent="1" source="wt6zBIOPUe3T90bkuQL0-29" target="wt6zBIOPUe3T90bkuQL0-31">
          <mxGeometry relative="1" as="geometry" />
        </mxCell>
        <mxCell id="wt6zBIOPUe3T90bkuQL0-50" value="" style="edgeStyle=orthogonalEdgeStyle;rounded=0;orthogonalLoop=1;jettySize=auto;html=1;" edge="1" parent="1" source="wt6zBIOPUe3T90bkuQL0-29" target="wt6zBIOPUe3T90bkuQL0-49">
          <mxGeometry relative="1" as="geometry" />
        </mxCell>
        <mxCell id="wt6zBIOPUe3T90bkuQL0-29" value="for (int i = 0; i &amp;lt; k; i++) {" style="shape=hexagon;perimeter=hexagonPerimeter2;whiteSpace=wrap;html=1;fixedSize=1;" vertex="1" parent="1">
          <mxGeometry x="763" y="655" width="260" height="40" as="geometry" />
        </mxCell>
        <mxCell id="wt6zBIOPUe3T90bkuQL0-34" value="" style="edgeStyle=orthogonalEdgeStyle;rounded=0;orthogonalLoop=1;jettySize=auto;html=1;" edge="1" parent="1" source="wt6zBIOPUe3T90bkuQL0-31" target="wt6zBIOPUe3T90bkuQL0-33">
          <mxGeometry relative="1" as="geometry" />
        </mxCell>
        <mxCell id="wt6zBIOPUe3T90bkuQL0-46" style="edgeStyle=orthogonalEdgeStyle;rounded=0;orthogonalLoop=1;jettySize=auto;html=1;entryX=0;entryY=0.5;entryDx=0;entryDy=0;" edge="1" parent="1" source="wt6zBIOPUe3T90bkuQL0-31" target="wt6zBIOPUe3T90bkuQL0-29">
          <mxGeometry relative="1" as="geometry">
            <Array as="points">
              <mxPoint x="1023" y="740" />
              <mxPoint x="1023" y="1041" />
              <mxPoint x="683" y="1041" />
              <mxPoint x="683" y="675" />
            </Array>
          </mxGeometry>
        </mxCell>
        <mxCell id="wt6zBIOPUe3T90bkuQL0-31" value="for (int j = 0; j &amp;lt; k-i-1; j++) {" style="shape=hexagon;perimeter=hexagonPerimeter2;whiteSpace=wrap;html=1;fixedSize=1;" vertex="1" parent="1">
          <mxGeometry x="793" y="720" width="200" height="40" as="geometry" />
        </mxCell>
        <mxCell id="wt6zBIOPUe3T90bkuQL0-36" value="" style="edgeStyle=orthogonalEdgeStyle;rounded=0;orthogonalLoop=1;jettySize=auto;html=1;" edge="1" parent="1" source="wt6zBIOPUe3T90bkuQL0-33" target="wt6zBIOPUe3T90bkuQL0-35">
          <mxGeometry relative="1" as="geometry" />
        </mxCell>
        <mxCell id="wt6zBIOPUe3T90bkuQL0-45" style="edgeStyle=orthogonalEdgeStyle;rounded=0;orthogonalLoop=1;jettySize=auto;html=1;exitX=1;exitY=0.5;exitDx=0;exitDy=0;" edge="1" parent="1" source="wt6zBIOPUe3T90bkuQL0-33">
          <mxGeometry relative="1" as="geometry">
            <mxPoint x="893" y="1020" as="targetPoint" />
            <Array as="points">
              <mxPoint x="993" y="810" />
              <mxPoint x="993" y="960" />
              <mxPoint x="894" y="960" />
            </Array>
          </mxGeometry>
        </mxCell>
        <mxCell id="wt6zBIOPUe3T90bkuQL0-33" value="if(a[j] &amp;lt; a[j+1]) {" style="rhombus;whiteSpace=wrap;html=1;" vertex="1" parent="1">
          <mxGeometry x="833" y="790" width="120" height="40" as="geometry" />
        </mxCell>
        <mxCell id="wt6zBIOPUe3T90bkuQL0-38" value="" style="edgeStyle=orthogonalEdgeStyle;rounded=0;orthogonalLoop=1;jettySize=auto;html=1;" edge="1" parent="1" source="wt6zBIOPUe3T90bkuQL0-35" target="wt6zBIOPUe3T90bkuQL0-37">
          <mxGeometry relative="1" as="geometry" />
        </mxCell>
        <mxCell id="wt6zBIOPUe3T90bkuQL0-35" value="string temp = a[j+1];" style="whiteSpace=wrap;html=1;" vertex="1" parent="1">
          <mxGeometry x="713" y="840" width="110" height="20" as="geometry" />
        </mxCell>
        <mxCell id="wt6zBIOPUe3T90bkuQL0-40" value="" style="edgeStyle=orthogonalEdgeStyle;rounded=0;orthogonalLoop=1;jettySize=auto;html=1;" edge="1" parent="1" source="wt6zBIOPUe3T90bkuQL0-37" target="wt6zBIOPUe3T90bkuQL0-39">
          <mxGeometry relative="1" as="geometry" />
        </mxCell>
        <mxCell id="wt6zBIOPUe3T90bkuQL0-37" value="a[j+1] = a[j];" style="whiteSpace=wrap;html=1;" vertex="1" parent="1">
          <mxGeometry x="713" y="880" width="110" height="20" as="geometry" />
        </mxCell>
        <mxCell id="wt6zBIOPUe3T90bkuQL0-41" style="edgeStyle=orthogonalEdgeStyle;rounded=0;orthogonalLoop=1;jettySize=auto;html=1;exitX=0.5;exitY=1;exitDx=0;exitDy=0;entryX=0;entryY=0.5;entryDx=0;entryDy=0;" edge="1" parent="1" source="wt6zBIOPUe3T90bkuQL0-39" target="wt6zBIOPUe3T90bkuQL0-31">
          <mxGeometry relative="1" as="geometry">
            <mxPoint x="693" y="740" as="targetPoint" />
            <Array as="points">
              <mxPoint x="768" y="960" />
              <mxPoint x="894" y="960" />
              <mxPoint x="894" y="1020" />
              <mxPoint x="703" y="1020" />
              <mxPoint x="703" y="740" />
            </Array>
          </mxGeometry>
        </mxCell>
        <mxCell id="wt6zBIOPUe3T90bkuQL0-39" value="a[j] = temp;" style="whiteSpace=wrap;html=1;" vertex="1" parent="1">
          <mxGeometry x="713" y="918" width="110" height="20" as="geometry" />
        </mxCell>
        <mxCell id="wt6zBIOPUe3T90bkuQL0-47" value="}" style="text;html=1;align=center;verticalAlign=middle;resizable=0;points=[];autosize=1;strokeColor=none;fillColor=none;" vertex="1" parent="1">
          <mxGeometry x="908" y="968" width="30" height="30" as="geometry" />
        </mxCell>
        <mxCell id="wt6zBIOPUe3T90bkuQL0-48" value="}" style="text;html=1;align=center;verticalAlign=middle;resizable=0;points=[];autosize=1;strokeColor=none;fillColor=none;" vertex="1" parent="1">
          <mxGeometry x="894" y="1047" width="30" height="30" as="geometry" />
        </mxCell>
        <mxCell id="wt6zBIOPUe3T90bkuQL0-52" value="" style="edgeStyle=orthogonalEdgeStyle;rounded=0;orthogonalLoop=1;jettySize=auto;html=1;" edge="1" parent="1" source="wt6zBIOPUe3T90bkuQL0-49" target="wt6zBIOPUe3T90bkuQL0-51">
          <mxGeometry relative="1" as="geometry" />
        </mxCell>
        <mxCell id="wt6zBIOPUe3T90bkuQL0-56" value="" style="edgeStyle=orthogonalEdgeStyle;rounded=0;orthogonalLoop=1;jettySize=auto;html=1;" edge="1" parent="1" source="wt6zBIOPUe3T90bkuQL0-49" target="wt6zBIOPUe3T90bkuQL0-55">
          <mxGeometry relative="1" as="geometry" />
        </mxCell>
        <mxCell id="wt6zBIOPUe3T90bkuQL0-49" value="for (int i = 0; i &amp;lt; k; i++) {" style="shape=hexagon;perimeter=hexagonPerimeter2;whiteSpace=wrap;html=1;fixedSize=1;" vertex="1" parent="1">
          <mxGeometry x="1113" y="740" width="260" height="40" as="geometry" />
        </mxCell>
        <mxCell id="wt6zBIOPUe3T90bkuQL0-53" style="edgeStyle=orthogonalEdgeStyle;rounded=0;orthogonalLoop=1;jettySize=auto;html=1;entryX=0;entryY=0.5;entryDx=0;entryDy=0;" edge="1" parent="1" source="wt6zBIOPUe3T90bkuQL0-51" target="wt6zBIOPUe3T90bkuQL0-49">
          <mxGeometry relative="1" as="geometry">
            <Array as="points">
              <mxPoint x="1243" y="860" />
              <mxPoint x="1093" y="860" />
              <mxPoint x="1093" y="760" />
            </Array>
          </mxGeometry>
        </mxCell>
        <mxCell id="wt6zBIOPUe3T90bkuQL0-51" value="cout&amp;lt;&amp;lt;a[i]&amp;lt;&amp;lt;&quot; &quot;;" style="shape=parallelogram;perimeter=parallelogramPerimeter;whiteSpace=wrap;html=1;fixedSize=1;" vertex="1" parent="1">
          <mxGeometry x="1133" y="807" width="220" height="23" as="geometry" />
        </mxCell>
        <mxCell id="wt6zBIOPUe3T90bkuQL0-54" value="}" style="text;html=1;align=center;verticalAlign=middle;resizable=0;points=[];autosize=1;strokeColor=none;fillColor=none;" vertex="1" parent="1">
          <mxGeometry x="1248" y="838" width="30" height="30" as="geometry" />
        </mxCell>
        <mxCell id="wt6zBIOPUe3T90bkuQL0-55" value="return 0;" style="ellipse;whiteSpace=wrap;html=1;" vertex="1" parent="1">
          <mxGeometry x="1376" y="855" width="80" height="49" as="geometry" />
        </mxCell>
        <mxCell id="wt6zBIOPUe3T90bkuQL0-57" value="}" style="text;html=1;align=center;verticalAlign=middle;resizable=0;points=[];autosize=1;strokeColor=none;fillColor=none;" vertex="1" parent="1">
          <mxGeometry x="1405" y="912" width="22" height="26" as="geometry" />
        </mxCell>
      </root>
    </mxGraphModel>
  </diagram>
</mxfile>
